<mxfile host="65bd71144e">
    <diagram id="tbhy92U_w4_0q3rcXjtL" name="Page-1">
        <mxGraphModel dx="666" dy="710" grid="1" gridSize="10" guides="1" tooltips="1" connect="1" arrows="1" fold="1" page="1" pageScale="1" pageWidth="850" pageHeight="1100" math="0" shadow="0">
            <root>
                <mxCell id="0"/>
                <mxCell id="1" parent="0"/>
                <mxCell id="2" value="Welcome Modal" style="rounded=0;whiteSpace=wrap;html=1;" vertex="1" parent="1">
                    <mxGeometry x="40" y="120" width="760" height="70" as="geometry"/>
                </mxCell>
                <mxCell id="3" value="Icon" style="icon;html=1;image=img/clipart/Gear_128x128.png" vertex="1" parent="1">
                    <mxGeometry x="30" y="30" width="60" height="60" as="geometry"/>
                </mxCell>
                <mxCell id="7" value="map&amp;nbsp;" style="rounded=0;whiteSpace=wrap;html=1;direction=south;" vertex="1" parent="1">
                    <mxGeometry x="590" y="330" width="170" height="440" as="geometry"/>
                </mxCell>
                <mxCell id="9" value="map for finding a community garden" style="whiteSpace=wrap;html=1;aspect=fixed;" vertex="1" parent="1">
                    <mxGeometry x="40" y="330" width="440" height="440" as="geometry"/>
                </mxCell>
                <mxCell id="10" value="Basic instructions for planting?" style="rounded=1;whiteSpace=wrap;html=1;" vertex="1" parent="1">
                    <mxGeometry x="160" y="220" width="560" height="60" as="geometry"/>
                </mxCell>
                <mxCell id="11" value="type in your zipcode to see community gardens near you" style="rounded=1;whiteSpace=wrap;html=1;" vertex="1" parent="1">
                    <mxGeometry x="50" y="290" width="330" height="30" as="geometry"/>
                </mxCell>
                <mxCell id="12" value="type in your zipcode to seee if your plant is plantable&amp;nbsp;" style="rounded=1;whiteSpace=wrap;html=1;" vertex="1" parent="1">
                    <mxGeometry x="520" y="290" width="310" height="30" as="geometry"/>
                </mxCell>
            </root>
        </mxGraphModel>
    </diagram>
</mxfile>